<svg xmlns="http://www.w3.org/2000/svg" width="21" height="19.637" viewBox="0 0 21 19.637">
  <path id="Path_235" data-name="Path 235" d="M13.818,30.909A.909.909,0,1,1,12.909,30,.909.909,0,0,1,13.818,30.909Z" transform="translate(-4.986 -12.682)" fill="none" stroke="#000f1a" stroke-linecap="round" stroke-linejoin="round" stroke-width="1"/>
  <path id="Path_236" data-name="Path 236" d="M30.318,30.909A.909.909,0,1,1,29.409,30,.909.909,0,0,1,30.318,30.909Z" transform="translate(-12.137 -12.682)" fill="none" stroke="#000f1a" stroke-linecap="round" stroke-linejoin="round" stroke-width="1"/>
  <path id="Path_237" data-name="Path 237" d="M1.5,1.5H4.955L7.269,12.82A1.719,1.719,0,0,0,9,14.181h8.395a1.719,1.719,0,0,0,1.727-1.361L20.5,5.727H5.818" transform="translate(-0.5 -0.5)" fill="none" stroke="#000f1a" stroke-linecap="round" stroke-linejoin="round" stroke-width="2"/>
</svg>
