<svg xmlns="http://www.w3.org/2000/svg" width="20.96" height="19.598" viewBox="0 0 20.96 19.598">
  <path id="Path_235" data-name="Path 235" d="M13.815,30.907A.907.907,0,1,1,12.907,30,.907.907,0,0,1,13.815,30.907Z" transform="translate(-4.998 -12.716)" fill="none" stroke="#cf2683" stroke-linecap="round" stroke-linejoin="round" stroke-width="1"/>
  <path id="Path_236" data-name="Path 236" d="M30.315,30.907A.907.907,0,1,1,29.407,30,.907.907,0,0,1,30.315,30.907Z" transform="translate(-12.168 -12.716)" fill="none" stroke="#cf2683" stroke-linecap="round" stroke-linejoin="round" stroke-width="1"/>
  <path id="Path_237" data-name="Path 237" d="M1.5,1.5H4.947l2.31,11.3a1.716,1.716,0,0,0,1.724,1.358h8.377A1.716,1.716,0,0,0,19.081,12.8L20.46,5.718H5.809" transform="translate(-0.5 -0.5)" fill="none" stroke="#cf2683" stroke-linecap="round" stroke-linejoin="round" stroke-width="2"/>
</svg>
