<svg xmlns="http://www.w3.org/2000/svg" width="20.805" height="27.754" viewBox="0 0 20.805 27.754">
  <path id="Icon_material-touch-app" data-name="Icon material-touch-app" d="M12.337,14.605V10.019a3.066,3.066,0,0,1,6.132,0v4.587a5.519,5.519,0,1,0-6.132,0ZM24.4,20.283l-5.568-2.772a1.727,1.727,0,0,0-.662-.135h-.932V10.019a1.84,1.84,0,0,0-3.679,0V23.19l-4.206-.883a2.143,2.143,0,0,0-.294-.037,1.372,1.372,0,0,0-.969.4l-.969.981,6.058,6.058a1.846,1.846,0,0,0,1.3.54H22.81a1.786,1.786,0,0,0,1.766-1.57l.92-6.463A1.763,1.763,0,0,0,24.4,20.283Z" transform="translate(-5.715 -3.5)" fill="none" stroke="#fff" stroke-width="2"/>
</svg>
