<svg xmlns="http://www.w3.org/2000/svg" width="25.007" height="25.048" viewBox="0 0 25.007 25.048">
  <g id="noun_edit_2198832" transform="translate(-27.474 -27.55)">
    <g id="Group_10762" data-name="Group 10762" transform="translate(27.474 27.55)">
      <g id="Group_10757" data-name="Group 10757" transform="translate(0.598)">
        <g id="Group_10756" data-name="Group 10756">
          <path id="Path_11479" data-name="Path 11479" d="M33.749,51.931a1.166,1.166,0,0,1-.612-.222L28.8,47.372a.806.806,0,0,1,0-1.168L47.2,27.8a.806.806,0,0,1,1.168,0l4.337,4.337a.806.806,0,0,1,0,1.168L34.36,51.709A1.166,1.166,0,0,1,33.749,51.931ZM30.635,46.76,33.8,49.93,51.041,32.693l-3.169-3.169Z" transform="translate(-28.55 -27.55)" fill="#181818"/>
        </g>
      </g>
      <g id="Group_10759" data-name="Group 10759" transform="translate(0 18.499)">
        <g id="Group_10758" data-name="Group 10758">
          <path id="Path_11480" data-name="Path 11480" d="M28.322,67.315a1.166,1.166,0,0,1-.612-.222.764.764,0,0,1-.222-.667l.612-4.893a.861.861,0,0,1,.556-.667.8.8,0,0,1,.834.222l4.281,4.281a.931.931,0,0,1,.222.834.958.958,0,0,1-.667.556l-4.893.612C28.378,67.315,28.378,67.315,28.322,67.315Zm1.223-3.948-.278,2.168,2.168-.278Z" transform="translate(-27.474 -60.822)" fill="#181818"/>
        </g>
      </g>
      <g id="Group_10761" data-name="Group 10761" transform="translate(14.721 4.281)">
        <g id="Group_10760" data-name="Group 10760">
          <path id="Path_11481" data-name="Path 11481" d="M59.149,41.227A.836.836,0,0,1,58.537,41L54.2,36.668A.826.826,0,0,1,55.368,35.5L59.7,39.837A.806.806,0,0,1,59.7,41,.849.849,0,0,1,59.149,41.227Z" transform="translate(-53.95 -35.25)" fill="#dfd8cc"/>
        </g>
      </g>
    </g>
  </g>
</svg>
