<svg xmlns="http://www.w3.org/2000/svg" width="158.596" height="140.975" viewBox="0 0 158.596 140.975">
  <path id="shopping-cart-solid" d="M145.413,82.965l13.016-57.271a6.608,6.608,0,0,0-6.444-8.073H43.836L41.313,5.284A6.608,6.608,0,0,0,34.839,0H6.608A6.608,6.608,0,0,0,0,6.608v4.405a6.608,6.608,0,0,0,6.608,6.608H25.85l19.342,94.562a15.421,15.421,0,1,0,18.46,2.358h57.724a15.415,15.415,0,1,0,17.511-2.865l1.519-6.684a6.608,6.608,0,0,0-6.444-8.073H60.057l-1.8-8.811h80.715A6.608,6.608,0,0,0,145.413,82.965Z" fill="#edf7f2"/>
</svg>
