<svg xmlns="http://www.w3.org/2000/svg" width="14.6" height="10.95" viewBox="0 0 14.6 10.95">
  <path id="envelope-solid" d="M14.323,67.616a.172.172,0,0,1,.277.134v5.831a1.369,1.369,0,0,1-1.369,1.369H1.369A1.369,1.369,0,0,1,0,73.581V67.753a.171.171,0,0,1,.277-.134c.639.5,1.486,1.126,4.394,3.239.6.439,1.617,1.363,2.629,1.357s2.053-.935,2.632-1.357C12.841,68.745,13.685,68.112,14.323,67.616ZM7.3,71.3c.662.011,1.614-.833,2.093-1.181,3.784-2.746,4.072-2.986,4.945-3.67a.682.682,0,0,0,.262-.539v-.542A1.369,1.369,0,0,0,13.231,64H1.369A1.369,1.369,0,0,0,0,65.369v.542a.687.687,0,0,0,.262.539c.873.682,1.161.924,4.945,3.67C5.686,70.467,6.638,71.311,7.3,71.3Z" transform="translate(0 -64)" fill="#757575"/>
</svg>
