<svg xmlns="http://www.w3.org/2000/svg" width="70" height="68" viewBox="0 0 70 68">
  <g id="Group_11340" data-name="Group 11340" transform="translate(0.357 -0.248)">
    <ellipse id="Ellipse_69" data-name="Ellipse 69" cx="35" cy="34" rx="35" ry="34" transform="translate(-0.357 0.248)" fill="#8dcfad"/>
    <path id="envelope-solid" d="M27.036,70.825a.324.324,0,0,1,.522.253V82.085a2.584,2.584,0,0,1-2.584,2.584H2.584A2.584,2.584,0,0,1,0,82.085v-11a.322.322,0,0,1,.522-.253c1.206.937,2.8,2.126,8.294,6.115,1.136.829,3.052,2.573,4.963,2.562,1.922.016,3.875-1.765,4.968-2.562C24.237,72.956,25.83,71.762,27.036,70.825ZM13.779,77.779c1.249.022,3.046-1.572,3.951-2.228,7.143-5.183,7.686-5.635,9.333-6.927a1.288,1.288,0,0,0,.5-1.017V66.584A2.584,2.584,0,0,0,24.975,64H2.584A2.584,2.584,0,0,0,0,66.584v1.023a1.3,1.3,0,0,0,.5,1.017c1.647,1.286,2.191,1.744,9.333,6.927C10.733,76.207,12.53,77.8,13.779,77.779Z" transform="translate(20.458 -39.852)" fill="#fff"/>
  </g>
</svg>
