<svg xmlns="http://www.w3.org/2000/svg" width="13.265" height="16.467" viewBox="0 0 13.265 16.467">
  <path id="Icon_awesome-sort-amount-up" data-name="Icon awesome-sort-amount-up" d="M57.509,16.364H55.156a.588.588,0,0,0-.588.588v1.176a.588.588,0,0,0,.588.588h2.352a.588.588,0,0,0,.588-.588V16.952A.588.588,0,0,0,57.509,16.364ZM53.22,5.951C50.05,2.193,53.59,6.321,53.22,5.951Zm8.994,1H55.156a.588.588,0,0,0-.588.588V8.719a.588.588,0,0,0,.588.588h7.057a.588.588,0,0,0,.588-.588V7.543A.588.588,0,0,0,62.214,6.955Zm-2.352,4.7h-4.7a.588.588,0,0,0-.588.588v1.176a.588.588,0,0,0,.588.588h4.7a.588.588,0,0,0,.588-.588V12.248A.588.588,0,0,0,59.861,11.66Zm4.7-9.41h-9.41a.588.588,0,0,0-.588.588V4.014a.588.588,0,0,0,.588.588h9.41a.588.588,0,0,0,.588-.588V2.838A.588.588,0,0,0,64.566,2.25Z" transform="translate(-51.89 -2.25)" fill="#8dcfad"/>
</svg>
