<svg xmlns="http://www.w3.org/2000/svg" width="16.545" height="16.545" viewBox="0 0 16.545 16.545">
  <path id="Icon_material-my-location" data-name="Icon material-my-location" d="M9.772,6.764a3.008,3.008,0,1,0,3.008,3.008A3.007,3.007,0,0,0,9.772,6.764ZM16.5,9.02a6.764,6.764,0,0,0-5.971-5.971V1.5H9.02V3.049A6.764,6.764,0,0,0,3.049,9.02H1.5v1.5H3.049A6.764,6.764,0,0,0,9.02,16.5v1.549h1.5V16.5A6.764,6.764,0,0,0,16.5,10.525h1.549V9.02ZM9.772,15.037a5.264,5.264,0,1,1,5.264-5.264A5.26,5.26,0,0,1,9.772,15.037Z" transform="translate(-1.5 -1.5)" fill="#8dcfad"/>
</svg>
