<svg xmlns="http://www.w3.org/2000/svg" width="166.056" height="139.834" viewBox="0 0 166.056 139.834">
  <path id="store-slash-solid" d="M33.182,104.875V77.619a32.618,32.618,0,0,1-7.647,1.038,33.719,33.719,0,0,1-4.67-.328,31.374,31.374,0,0,1-4.255-.983v53.749a8.521,8.521,0,0,0,8.3,8.74H138.123L95.154,104.875ZM25.534,69.892a24.768,24.768,0,0,0,17.479-7.44L6.55,32.787c-8.335,14.582-.669,34.557,15.428,36.87a26.132,26.132,0,0,0,3.548.235ZM164.445,125.11l-15-12.2V77.346a25.536,25.536,0,0,1-4.252.983,34.771,34.771,0,0,1-4.722.328,31.377,31.377,0,0,1-7.647-1.038V99.38L95.181,68.762a24.05,24.05,0,0,0,6.94,1.131,25.086,25.086,0,0,0,19.148-9.043,25.155,25.155,0,0,0,19.148,9.043,25.758,25.758,0,0,0,3.55-.249c16.294-2.3,24.034-22.614,15.311-37.253L142.438,4.1a8.221,8.221,0,0,0-7.03-4.1H30.584a8.223,8.223,0,0,0-7.027,4.1l-2.565,4.31L11.791.923a4.009,4.009,0,0,0-5.825.767l-5.1,6.9A4.528,4.528,0,0,0,1.6,14.724l152.654,124.19a4.012,4.012,0,0,0,5.826-.77l5.1-6.9A4.528,4.528,0,0,0,164.445,125.11Z" transform="translate(0.006)" fill="#edf7f2"/>
</svg>
