<svg xmlns="http://www.w3.org/2000/svg" width="108.979" height="108.98" viewBox="0 0 108.979 108.98">
  <g id="Group_10748" data-name="Group 10748" transform="translate(0 0)">
    <g id="Group_10745" data-name="Group 10745" transform="translate(0 27.245)">
      <path id="Path_11474" data-name="Path 11474" d="M102.168,10.541H2.27A2.27,2.27,0,1,1,2.27,6h99.9a2.27,2.27,0,0,1,0,4.541Z" transform="translate(0 -6)" fill="#8dcfad"/>
    </g>
    <g id="Group_10746" data-name="Group 10746" transform="translate(27.245 0.001)">
      <path id="Path_11475" data-name="Path 11475" d="M8.27,31.785A2.245,2.245,0,0,1,7.012,31.4a2.268,2.268,0,0,1-.631-3.147L24.544,1.012a2.269,2.269,0,1,1,3.778,2.516L10.159,30.773A2.262,2.262,0,0,1,8.27,31.785Z" transform="translate(-6 0)" fill="#8dcfad"/>
    </g>
    <g id="Group_10747" data-name="Group 10747" transform="translate(54.486 0)">
      <path id="Path_11476" data-name="Path 11476" d="M32.437,31.786a2.27,2.27,0,0,1-1.894-1.013L12.38,3.529a2.269,2.269,0,1,1,3.778-2.516L34.321,28.258A2.268,2.268,0,0,1,33.69,31.4,2.22,2.22,0,0,1,32.437,31.786Z" transform="translate(-11.999 0)" fill="#8dcfad"/>
    </g>
    <path id="Path_11477" data-name="Path 11477" d="M95.888,6.89a2.271,2.271,0,0,0-1.8-.89H3.269A2.267,2.267,0,0,0,1.081,8.865l11.8,43.256A11.37,11.37,0,0,0,23.826,60.49H49.041a2.273,2.273,0,0,0,2.248-1.948,29.376,29.376,0,0,1,35.854-24.5,2.261,2.261,0,0,0,2.706-1.612L96.274,8.87A2.275,2.275,0,0,0,95.888,6.89Z" transform="translate(3.542 21.245)" fill="#8dcfad"/>
    <path id="Path_11478" data-name="Path 11478" d="M37.974,13A24.974,24.974,0,1,0,62.949,37.974,25,25,0,0,0,37.974,13Z" transform="translate(46.031 46.031)" fill="#e31720"/>
    <path id="close_1_" data-name="close (1)" d="M169.011,150.43l-7.37,7.37,7.37,7.37a2.009,2.009,0,1,1-2.841,2.841l-7.37-7.37-7.37,7.37a2.009,2.009,0,0,1-2.841-2.841l7.37-7.37-7.37-7.37a2.009,2.009,0,0,1,2.841-2.841l7.37,7.37,7.37-7.37a2.009,2.009,0,0,1,2.841,2.841Z" transform="translate(-74.3 -72.704)" fill="#fff"/>
  </g>
</svg>
