<svg xmlns="http://www.w3.org/2000/svg" width="68" height="68" viewBox="0 0 68 68">
  <g id="Group_11338" data-name="Group 11338" transform="translate(0.176 -0.248)">
    <g id="Ellipse_69" data-name="Ellipse 69" transform="translate(-0.176 0.248)" fill="#8dcfad" stroke="#8dcfad" stroke-width="1">
      <circle cx="34" cy="34" r="34" stroke="none"/>
      <circle cx="34" cy="34" r="33.5" fill="none"/>
    </g>
    <path id="whatsapp-brands" d="M33.1,57.86c-.659-.336-3.932-1.942-4.544-2.158s-1.055-.336-1.5.336-1.714,2.158-2.11,2.613-.779.5-1.439.168c-3.908-1.954-6.474-3.489-9.051-7.912-.683-1.175.683-1.091,1.954-3.632a1.232,1.232,0,0,0-.06-1.163c-.168-.336-1.5-3.608-2.05-4.939-.539-1.295-1.091-1.115-1.5-1.139-.384-.024-.827-.024-1.271-.024a2.464,2.464,0,0,0-1.774.827,7.473,7.473,0,0,0-2.326,5.551c0,3.273,2.386,6.438,2.709,6.881s4.687,7.157,11.365,10.046c4.22,1.822,5.874,1.978,7.984,1.666,1.283-.192,3.932-1.606,4.484-3.165a5.562,5.562,0,0,0,.384-3.165C34.2,58.351,33.759,58.183,33.1,57.86Z" transform="translate(13.304 -18.313)" fill="#fff"/>
  </g>
</svg>
