<svg xmlns="http://www.w3.org/2000/svg" width="20.379" height="25.092" viewBox="0 0 20.379 25.092">
  <g id="bin" transform="translate(0.003 0.001)">
    <path id="Path_11482" data-name="Path 11482" d="M222.986,154.7a.588.588,0,0,0-.588.588V166.4a.588.588,0,1,0,1.175,0V155.291A.588.588,0,0,0,222.986,154.7Zm0,0" transform="translate(-209.332 -145.613)" fill="#181818"/>
    <path id="Path_11483" data-name="Path 11483" d="M104.986,154.7a.588.588,0,0,0-.588.588V166.4a.588.588,0,1,0,1.175,0V155.291A.588.588,0,0,0,104.986,154.7Zm0,0" transform="translate(-98.267 -145.613)" fill="#181818"/>
    <path id="Path_11484" data-name="Path 11484" d="M1.666,7.469V21.947a3.242,3.242,0,0,0,.862,2.236,2.894,2.894,0,0,0,2.1.908H15.746a2.893,2.893,0,0,0,2.1-.908,3.242,3.242,0,0,0,.862-2.236V7.469a2.245,2.245,0,0,0-.576-4.414H15.123V2.32A2.308,2.308,0,0,0,12.8,0H7.578A2.308,2.308,0,0,0,5.25,2.32v.735H2.242a2.245,2.245,0,0,0-.576,4.414Zm14.08,16.447H4.627a1.861,1.861,0,0,1-1.786-1.969V7.521H17.532V21.947A1.861,1.861,0,0,1,15.746,23.916ZM6.426,2.32A1.132,1.132,0,0,1,7.578,1.174H12.8A1.132,1.132,0,0,1,13.947,2.32v.735H6.426ZM2.242,4.23h15.89a1.058,1.058,0,0,1,0,2.115H2.242a1.058,1.058,0,0,1,0-2.115Zm0,0" transform="translate(0 0)" fill="#181818"/>
    <path id="Path_11485" data-name="Path 11485" d="M163.986,154.7a.588.588,0,0,0-.588.588V166.4a.588.588,0,1,0,1.175,0V155.291A.588.588,0,0,0,163.986,154.7Zm0,0" transform="translate(-153.8 -145.613)" fill="#181818"/>
  </g>
</svg>
